IKResults
version=1
nRows=6
nColumns=44
inDegrees=yes

Units are S.I. units (second, meters, Newtons, ...)
Angles are in degrees.

endheader
time	ground_spine_rot_x	ground_spine_rot_y	ground_spine_rot_z	ground_spine_tx	ground_spine_ty	ground_spine_tz	clav_prot	clav_elev	scapula_abduction	scapula_elevation	scapula_upward_rot	scapula_winging	plane_elv	shoulder_elv	axial_rot	elbow_flexion	pro_sup	clav_prot_l	clav_elev_l	pitch2	roll2	yaw2	aux7jnt_r3	aux7jnt_r1	aux7jnt_r2	aux6jnt_r3	aux6jnt_r1	aux6jnt_r2	aux5jnt_r3	aux5jnt_r1	aux5jnt_r2	aux4jnt_r3	aux4jnt_r1	aux4jnt_r2	aux3jnt_r3	aux3jnt_r1	aux3jnt_r2	pitch1	roll1	yaw1	aux1jnt_r3	aux1jnt_r1	aux1jnt_r2
      2.74000000	      1.03995693	     -1.46098897	     -0.74759705	     -0.84175743	      1.09637025	      0.91399694	    -24.25969220	     -1.10353723	      5.09852577	    -15.88471929	     11.99878450	     18.59278819	    -66.08478174	     36.43594518	     50.60753286	      0.00000000	     34.32000000	     30.42326055	     -1.16071730	     -0.54500672	     -0.11533160	     -0.11917053	     -5.83937655	     -0.90529713	     -1.28365794	     -6.86983792	     -1.03745892	     -1.49532407	     -6.86983792	     -1.42732997	     -1.49532407	     -5.15237844	     -1.42732997	     -1.49532407	     -3.43491896	     -1.29517196	     -0.64182897	     -0.26242492	      0.00213570	      0.14195652	     -8.35992326	      0.06118343	      0.90282125
      2.75000000	      1.00605503	     -1.43226844	     -0.73845467	     -0.84150230	      1.09634271	      0.91416866	    -24.23504578	     -1.06667900	      5.12525131	    -15.84731773	     11.99824000	     18.56466119	    -66.00024109	     36.40495198	     48.51383700	      0.00000000	     34.32000000	     30.42326055	     -1.16071730	     -0.53523948	     -0.10659227	     -0.10136689	     -5.73472717	     -0.83669764	     -1.09188409	     -6.74672131	     -0.95884479	     -1.27192806	     -6.74672131	     -1.31917310	     -1.27192806	     -5.06004098	     -1.31917310	     -1.27192806	     -3.37336066	     -1.19702945	     -0.54594205	     -0.26035399	      0.00274381	      0.12385392	     -8.29395055	      0.07860431	      0.78769155
      2.76000000	      1.02570352	     -1.45288671	     -0.71956389	     -0.84113356	      1.09635082	      0.91405370	    -24.22966442	     -1.10592145	      5.14938679	    -15.88384015	     11.99838678	     18.56964142	    -66.20173099	     36.39966781	     53.73852747	      0.00000000	     34.32000000	     30.42326055	     -1.16071730	     -0.52403202	     -0.10046515	     -0.06998146	     -5.61464690	     -0.78860268	     -0.75381264	     -6.60545075	     -0.90372858	     -0.87811102	     -6.60545075	     -1.24334455	     -0.87811102	     -4.95408806	     -1.24334455	     -0.87811102	     -3.30272538	     -1.12822194	     -0.37690632	     -0.25823981	      0.00853490	      0.09224247	     -8.22660041	      0.24450685	      0.58664766
      2.77000000	      0.99887112	     -1.47720095	     -0.74782300	     -0.84109770	      1.09629466	      0.91424118	    -24.08472356	     -1.16114145	      5.41356554	    -15.92154005	     11.99914964	     18.46733494	    -66.22984785	     36.60903410	     47.91184542	      0.00000000	     34.32000000	     30.42326055	     -1.16071730	     -0.51124740	     -0.09106565	     -0.04164482	     -5.47766840	     -0.71482115	     -0.44858151	     -6.44429997	     -0.81917589	     -0.52254944	     -6.44429997	     -1.12701745	     -0.52254944	     -4.83322498	     -1.12701745	     -0.52254944	     -3.22214999	     -1.02266570	     -0.22429076	     -0.25547329	      0.01065369	      0.06434927	     -8.13846888	      0.30520580	      0.40925131
      2.78000000	      1.00278541	     -1.47513563	     -0.76574240	     -0.84090856	      1.09621493	      0.91417899	    -24.09082333	     -1.10365284	      5.38116378	    -15.86790470	     11.99878893	     18.45864615	    -66.26550116	     36.33701133	     53.64491283	      0.00000000	     34.32000000	     30.42326055	     -1.16071730	     -0.49541494	     -0.08641918	     -0.03079638	     -5.30803429	     -0.67834862	     -0.33172647	     -6.24473092	     -0.77737884	     -0.38642582	     -6.24473092	     -1.06951330	     -0.38642582	     -4.68354819	     -1.06951330	     -0.38642582	     -3.12236546	     -0.97048592	     -0.16586323	     -0.25394356	      0.00985080	      0.05320170	     -8.08973725	      0.28220477	      0.33835448
      2.79000000	      1.01756579	     -1.31348324	     -0.81896655	     -0.84088197	      1.09612701	      0.91390063	    -24.67970484	     -1.09862201	      4.38720264	    -15.92112469	     11.99642872	     18.92364577	    -64.48242814	     35.80968275	     46.70211943	      0.00000000	     34.32000000	     30.42326055	     -1.16071730	     -0.47692399	     -0.07950379	     -0.01996422	     -5.10991634	     -0.62406616	     -0.21504674	     -6.01165155	     -0.71517183	     -0.25050643	     -6.01165155	     -0.98392926	     -0.25050643	     -4.50873866	     -0.98392926	     -0.25050643	     -3.00582577	     -0.89282620	     -0.10752337	     -0.25314642	      0.00924378	      0.03951543	     -8.06434317	      0.26481473	      0.25131199
